M48
;DRILL file {Pcbnew (2012-oct-18)-testing} date Fri 26 Oct 2012 04:46:03 PM CEST
;FORMAT={-:-/ absolute / inch / decimal}
FMAT,2
INCH,TZ
T1C0.025
T2C0.032
T3C0.035
T4C0.039
T5C0.059
T6C0.067
T7C0.098
T8C0.120
T9C0.157
T10C0.157
%
G90
G05
M72
T1
X0.4926Y-0.5941
X1.0376Y-1.6341
X1.1376Y-0.671
X1.1926Y-0.9091
X1.3076Y-0.5741
X1.3176Y-2.0441
X1.4876Y-2.8391
X1.7945Y-2.871
X1.8776Y-1.2841
X1.9126Y-2.1641
X2.2845Y-2.121
X2.6426Y-2.716
X2.9145Y-3.251
X3.1445Y-2.581
X3.5545Y-3.231
X3.5545Y-3.291
X3.6945Y-2.996
X3.7276Y-3.6191
X3.7726Y-3.3341
X3.7976Y-2.4391
X3.8226Y-3.3341
X3.8645Y-3.436
X3.8676Y-3.2241
X3.8695Y-2.936
X3.9045Y-3.466
X3.9076Y-3.3341
X3.9126Y-3.5991
X3.9476Y-2.9811
X3.9995Y-2.981
X4.0176Y-2.8041
X4.0376Y-3.3041
X4.0376Y-3.3541
X4.0376Y-3.4041
X4.0726Y-2.8641
X4.0726Y-2.9816
X4.0826Y-0.9591
X4.0876Y-2.8041
X4.1245Y-3.536
X4.1576Y-2.8041
X4.2026Y-3.4091
X4.2251Y-2.8041
X4.2495Y-2.966
X4.2976Y-1.5441
X4.3376Y-3.2391
X4.3976Y-2.9991
X4.4276Y-3.3741
X4.4526Y-3.0391
X4.5626Y-2.3491
X4.5976Y-3.4466
X4.6076Y-2.2191
X4.6526Y-2.8841
X4.7526Y-2.6791
X5.4195Y-2.721
X5.7976Y-2.8691
X6.1645Y-2.721
X6.3326Y-2.0441
X6.9626Y-2.6841
X7.2776Y-3.4141
X7.2776Y-3.5841
X7.6945Y-2.721
X8.4545Y-2.721
X9.0945Y-2.991
X10.0476Y-2.0641
T2
X1.6726Y-2.4141
X1.6726Y-2.7141
T3
X5.9976Y-3.5941
X6.0976Y-3.5941
X6.1976Y-3.5941
X6.2976Y-3.5941
X6.3976Y-3.5941
X6.4976Y-3.5941
T4
X0.4039Y-2.0504
X0.5039Y-2.0504
X0.5914Y-2.0504
X0.6914Y-2.0504
X0.6914Y-2.0504
X0.7914Y-2.0504
T5
X0.1601Y-0.2504
X0.2539Y-3.2504
X0.2601Y-0.5004
X0.3039Y-1.7504
X0.3039Y-2.5004
X0.3539Y-3.5004
X0.3976Y-1.0004
X0.4914Y-1.7504
X0.5539Y-1.6504
X0.5539Y-2.4004
X0.6289Y-2.5004
X0.6476Y-0.9004
X0.6476Y-3.2004
X0.7289Y-2.7504
X0.7414Y-1.6504
X0.7476Y-3.4504
X1.1476Y-2.5004
X1.1914Y-3.2504
X1.2101Y-0.2004
X1.2851Y-3.2504
X1.2914Y-3.5004
X1.3101Y-0.4504
X1.3351Y-1.0004
X1.3851Y-3.5004
X1.3976Y-2.4004
X1.5226Y-1.7504
X1.5851Y-0.9004
X1.7101Y-0.2504
X1.7726Y-1.6504
X1.7726Y-3.2004
X1.8726Y-3.4504
X1.8976Y-2.5004
X1.9601Y-0.1504
X2.0851Y-1.0004
X2.1289Y-3.2504
X2.1476Y-2.4004
X2.2289Y-3.5004
X2.2726Y-1.7504
X2.3351Y-0.9004
X2.4601Y-0.2504
X2.5226Y-1.6504
X2.5226Y-3.2004
X2.6226Y-3.4504
X2.6476Y-2.5004
X2.7101Y-0.1504
X2.8351Y-1.0004
X2.8976Y-2.4004
X3.0226Y-1.7504
X3.0851Y-0.9004
X3.2101Y-0.2504
X3.2726Y-1.6504
X3.3976Y-2.5004
X3.4601Y-0.1504
X3.5851Y-1.0004
X3.6476Y-2.4004
X3.7726Y-1.7504
X3.8351Y-0.9004
X3.9601Y-0.2504
X4.0226Y-1.6504
X4.1476Y-2.5004
X4.2101Y-0.1504
X4.3351Y-1.0004
X4.3976Y-2.4004
X4.5226Y-1.7504
X4.5851Y-0.9004
X4.6601Y-3.2504
X4.7101Y-0.2504
X4.7601Y-3.5004
X4.7726Y-1.6504
X4.8976Y-2.5004
X4.9601Y-0.1504
X5.0851Y-1.0004
X5.1476Y-2.4004
X5.2414Y-3.2004
X5.2726Y-1.7504
X5.3351Y-0.9004
X5.3414Y-3.4504
X5.4601Y-0.2504
X5.4601Y-3.2504
X5.5226Y-1.6504
X5.6476Y-2.5004
X5.7101Y-0.1504
X5.7101Y-3.1504
X5.8351Y-1.0004
X5.8976Y-2.4004
X6.0226Y-1.7504
X6.0851Y-0.9004
X6.2101Y-0.2504
X6.2726Y-1.6504
X6.3976Y-2.5004
X6.4601Y-0.1504
X6.5851Y-1.0004
X6.6476Y-2.4004
X6.7726Y-1.7504
X6.8351Y-0.9004
X6.9601Y-0.2504
X7.0226Y-1.6504
X7.1476Y-2.5004
X7.2101Y-0.1504
X7.3351Y-1.0004
X7.3976Y-2.4004
X7.5226Y-1.7504
X7.5851Y-0.9004
X7.7101Y-0.2504
X7.7539Y-3.2504
X7.7726Y-1.6504
X7.8539Y-3.5004
X7.8976Y-2.5004
X7.9601Y-0.1504
X8.0851Y-1.0004
X8.1476Y-2.4004
X8.1476Y-3.2004
X8.2476Y-3.4504
X8.2726Y-1.7504
X8.3351Y-0.9004
X8.4601Y-0.2504
X8.5226Y-1.6504
X8.5976Y-3.2504
X8.6476Y-2.5004
X8.6914Y-3.2504
X8.6976Y-3.5004
X8.7101Y-0.1504
X8.7914Y-3.5004
X8.8351Y-1.0004
X8.8976Y-2.4004
X9.0226Y-1.7504
X9.0851Y-0.9004
X9.0851Y-3.2004
X9.1851Y-3.4504
X9.2101Y-0.2504
X9.2726Y-1.6504
X9.3476Y-2.5004
X9.4476Y-2.7504
X9.4601Y-0.1504
X9.5351Y-3.2504
X9.5851Y-1.0004
X9.6351Y-3.5004
X9.7726Y-1.7504
X9.8351Y-0.9004
X9.9289Y-2.4504
X9.9289Y-3.2004
X10.0226Y-1.6504
X10.0289Y-2.7004
X10.0289Y-3.4504
X10.0539Y-2.5004
X10.1914Y-1.7504
X10.2914Y-2.0004
X10.3039Y-2.4004
X10.3351Y-0.2504
X10.3789Y-2.5004
X10.4726Y-3.2504
X10.4789Y-2.7504
X10.5664Y-1.3754
X10.5726Y-3.5004
X10.5851Y-0.1504
X10.6663Y-2.0503
X10.6664Y-1.6254
X10.7726Y-0.9504
X10.8664Y-3.2004
X10.8726Y-1.2004
X10.9163Y-1.9504
X10.9601Y-2.4504
X10.9664Y-3.4504
X11.0601Y-2.7004
T6
X0.2539Y-1.8504
X0.2539Y-2.6004
X0.3476Y-1.1004
X0.3601Y-0.1504
X0.3601Y-0.5504
X0.4539Y-3.1504
X0.4539Y-3.5504
X0.5476Y-3.1504
X0.5476Y-3.5504
X0.6539Y-2.6004
X0.7476Y-1.1004
X0.8289Y-2.4004
X0.8289Y-2.8004
X0.8414Y-1.8504
X1.0976Y-2.6004
X1.1101Y-0.1504
X1.1101Y-0.5504
X1.2851Y-1.1004
X1.3914Y-3.1504
X1.3914Y-3.5504
X1.4726Y-1.8504
X1.4851Y-3.1504
X1.4851Y-3.5504
X1.4976Y-2.6004
X1.6601Y-0.3504
X1.6726Y-3.1504
X1.6726Y-3.5504
X1.6851Y-1.1004
X1.8476Y-2.6004
X1.8726Y-1.8504
X2.0351Y-1.1004
X2.0601Y-0.3504
X2.2226Y-1.8504
X2.2476Y-2.6004
X2.3289Y-3.1504
X2.3289Y-3.5504
X2.4101Y-0.3504
X2.4226Y-3.1504
X2.4226Y-3.5504
X2.4351Y-1.1004
X2.5976Y-2.6004
X2.6226Y-1.8504
X2.7851Y-1.1004
X2.8101Y-0.3504
X2.9726Y-1.8504
X2.9976Y-2.6004
X3.1601Y-0.3504
X3.1851Y-1.1004
X3.3476Y-2.6004
X3.3726Y-1.8504
X3.5351Y-1.1004
X3.5601Y-0.3504
X3.7226Y-1.8504
X3.7476Y-2.6004
X3.9101Y-0.3504
X3.9351Y-1.1004
X4.0976Y-2.6004
X4.1226Y-1.8504
X4.2851Y-1.1004
X4.3101Y-0.3504
X4.4726Y-1.8504
X4.4976Y-2.6004
X4.6601Y-0.3504
X4.6851Y-1.1004
X4.8476Y-2.6004
X4.8601Y-3.1504
X4.8601Y-3.5504
X4.8726Y-1.8504
X5.0351Y-1.1004
X5.0601Y-0.3504
X5.1414Y-3.1504
X5.1414Y-3.5504
X5.2226Y-1.8504
X5.2476Y-2.6004
X5.4101Y-0.3504
X5.4101Y-3.3504
X5.4351Y-1.1004
X5.5976Y-2.6004
X5.6226Y-1.8504
X5.7851Y-1.1004
X5.8101Y-0.3504
X5.8101Y-3.3504
X5.9726Y-1.8504
X5.9976Y-2.6004
X6.1601Y-0.3504
X6.1851Y-1.1004
X6.3476Y-2.6004
X6.3726Y-1.8504
X6.5351Y-1.1004
X6.5601Y-0.3504
X6.7226Y-1.8504
X6.7476Y-2.6004
X6.9101Y-0.3504
X6.9351Y-1.1004
X7.0976Y-2.6004
X7.1226Y-1.8504
X7.2851Y-1.1004
X7.3101Y-0.3504
X7.4726Y-1.8504
X7.4976Y-2.6004
X7.6601Y-0.3504
X7.6851Y-1.1004
X7.8476Y-2.6004
X7.8726Y-1.8504
X7.9539Y-3.1504
X7.9539Y-3.5504
X8.0351Y-1.1004
X8.0476Y-3.1504
X8.0476Y-3.5504
X8.0601Y-0.3504
X8.2226Y-1.8504
X8.2476Y-2.6004
X8.4101Y-0.3504
X8.4351Y-1.1004
X8.5976Y-2.6004
X8.6226Y-1.8504
X8.7851Y-1.1004
X8.7976Y-3.1504
X8.7976Y-3.5504
X8.8101Y-0.3504
X8.8914Y-3.1504
X8.8914Y-3.5504
X8.9726Y-1.8504
X8.9851Y-3.1504
X8.9851Y-3.5504
X8.9976Y-2.6004
X9.1601Y-0.3504
X9.1851Y-1.1004
X9.3726Y-1.8504
X9.5351Y-1.1004
X9.5476Y-2.4004
X9.5476Y-2.8004
X9.5601Y-0.3504
X9.7226Y-1.8504
X9.7351Y-3.1504
X9.7351Y-3.5504
X9.8289Y-2.4004
X9.8289Y-2.8004
X9.8289Y-3.1504
X9.8289Y-3.5504
X9.9351Y-1.1004
X10.0039Y-2.6004
X10.1226Y-1.8504
X10.2851Y-0.3504
X10.3914Y-1.6504
X10.3914Y-2.0504
X10.4039Y-2.6004
X10.5663Y-1.8503
X10.5789Y-2.4004
X10.5789Y-2.8004
X10.6726Y-0.9004
X10.6726Y-1.3004
X10.6726Y-3.1504
X10.6726Y-3.5504
X10.6851Y-0.3504
X10.7664Y-1.2754
X10.7664Y-1.6754
X10.7664Y-3.1504
X10.7664Y-3.5504
X10.8601Y-2.4004
X10.8601Y-2.8004
X10.9664Y-1.8503
T7
X0.9771Y-1.1024
T8
X0.3601Y-2.3254
X1.2976Y-2.3254
X2.6101Y-3.6254
X3.1726Y-3.6254
X3.3601Y-3.6254
X7.1101Y-3.6254
X7.8601Y-3.6254
X9.7351Y-2.3254
X9.9226Y-1.5754
X10.0164Y-0.0754
X10.4914Y-1.0066
X10.4914Y-1.9441
X10.6726Y-2.3254
X10.8601Y-1.5754
X10.9539Y-0.0754
T9
X0.3601Y-0.3504
X0.4539Y-1.8504
X0.4539Y-2.6004
X0.4539Y-3.3504
X0.5476Y-1.1004
X0.5476Y-3.3504
X0.6414Y-1.8504
X0.8289Y-2.6004
X1.1101Y-0.3504
X1.2976Y-2.6004
X1.3914Y-3.3504
X1.4851Y-1.1004
X1.4851Y-3.3504
X1.6726Y-1.8504
X1.6726Y-3.3504
X1.8601Y-0.3504
X2.0476Y-2.6004
X2.2351Y-1.1004
X2.3289Y-3.3504
X2.4226Y-1.8504
X2.4226Y-3.3504
X2.6101Y-0.3504
X2.7976Y-2.6004
X2.9851Y-1.1004
X3.1726Y-1.8504
X3.3601Y-0.3504
X3.5476Y-2.6004
X3.7351Y-1.1004
X3.9226Y-1.8504
X4.1101Y-0.3504
X4.2976Y-2.6004
X4.4851Y-1.1004
X4.6726Y-1.8504
X4.8601Y-0.3504
X4.8601Y-3.3504
X5.0476Y-2.6004
X5.1414Y-3.3504
X5.2351Y-1.1004
X5.4226Y-1.8504
X5.6101Y-0.3504
X5.6101Y-3.3504
X5.7976Y-2.6004
X5.9851Y-1.1004
X6.1726Y-1.8504
X6.3601Y-0.3504
X6.5476Y-2.6004
X6.7351Y-1.1004
X6.9226Y-1.8504
X7.1101Y-0.3504
X7.2976Y-2.6004
X7.4851Y-1.1004
X7.6726Y-1.8504
X7.8601Y-0.3504
X7.9539Y-3.3504
X8.0476Y-2.6004
X8.0476Y-3.3504
X8.2351Y-1.1004
X8.4226Y-1.8504
X8.6101Y-0.3504
X8.7976Y-2.6004
X8.7976Y-3.3504
X8.8914Y-3.3504
X8.9851Y-1.1004
X8.9851Y-3.3504
X9.1726Y-1.8504
X9.3601Y-0.3504
X9.5476Y-2.6004
X9.7351Y-1.1004
X9.7351Y-3.3504
X9.8289Y-2.6004
X9.8289Y-3.3504
X9.9226Y-1.8504
X10.2039Y-2.6004
X10.3914Y-1.8504
X10.4851Y-0.3504
X10.5789Y-2.6004
X10.6726Y-1.1004
X10.6726Y-3.3504
X10.7663Y-1.8503
X10.7664Y-1.4754
X10.7664Y-3.3504
X10.8601Y-2.6004
T10
X0.3601Y-2.9254
X1.2976Y-2.9254
X2.6101Y-3.0254
X3.1726Y-3.0254
X3.3601Y-3.0254
X7.1101Y-3.0254
X7.8601Y-3.0254
X9.7351Y-2.9254
X9.9226Y-2.1754
X10.0164Y-0.6754
X10.6726Y-2.9254
X10.8601Y-2.1754
X10.9539Y-0.6754
X11.0914Y-1.0066
X11.0914Y-1.9441
T7
X-0.0312Y-2.2284G85X0.146Y-2.2284
G05
X4.9829Y-1.8547G85X5.0815Y-1.8547
G05
X7.4467Y-3.3583G85X7.5453Y-3.3583
G05
X10.1731Y-1.1024G85X10.2716Y-1.1024
G05
X11.0744Y-2.2284G85X11.2516Y-2.2284
G05
T0
M30
