G04 (created by PCBNEW (2012-oct-18)-testing) date Fri 26 Oct 2012 04:47:30 PM CEST*
%MOIN*%
G04 Gerber Fmt 3.4, Leading zero omitted, Abs format*
%FSLAX34Y34*%
G01*
G70*
G90*
G04 APERTURE LIST*
%ADD10C,3.93701e-06*%
%ADD11C,0.1661*%
%ADD12C,0.1078*%
%ADD13C,0.0763*%
%ADD14C,0.1294*%
%ADD15C,0.1664*%
%ADD16C,0.285*%
%ADD17O,0.4031X0.2063*%
%ADD18C,0.2063*%
%ADD19C,0.0644*%
%ADD20C,0.0724*%
%ADD21C,0.0684551*%
G04 APERTURE END LIST*
G54D10*
G54D11*
X4539Y-18504D03*
G54D12*
X5539Y-16504D03*
X3039Y-17504D03*
G54D13*
X2539Y-18504D03*
G54D11*
X6414Y-18504D03*
G54D12*
X7414Y-16504D03*
X4914Y-17504D03*
G54D13*
X8414Y-18504D03*
G54D14*
X109539Y-754D03*
G54D15*
X109539Y-6754D03*
G54D14*
X3601Y-23254D03*
G54D15*
X3601Y-29254D03*
G54D14*
X12976Y-23254D03*
G54D15*
X12976Y-29254D03*
G54D14*
X106726Y-23254D03*
G54D15*
X106726Y-29254D03*
G54D14*
X97351Y-23254D03*
G54D15*
X97351Y-29254D03*
G54D14*
X108601Y-15754D03*
G54D15*
X108601Y-21754D03*
G54D14*
X99226Y-15754D03*
G54D15*
X99226Y-21754D03*
G54D14*
X104914Y-10066D03*
G54D15*
X110914Y-10066D03*
G54D14*
X104914Y-19441D03*
G54D15*
X110914Y-19441D03*
G54D14*
X100164Y-754D03*
G54D15*
X100164Y-6754D03*
G54D14*
X71101Y-36254D03*
G54D15*
X71101Y-30254D03*
G54D14*
X31726Y-36254D03*
G54D15*
X31726Y-30254D03*
G54D14*
X26101Y-36254D03*
G54D15*
X26101Y-30254D03*
G54D14*
X33601Y-36254D03*
G54D15*
X33601Y-30254D03*
G54D14*
X78601Y-36254D03*
G54D15*
X78601Y-30254D03*
G54D16*
X50322Y-18547D03*
G54D17*
X574Y-22284D03*
X111630Y-22284D03*
G54D16*
X74960Y-33583D03*
X102224Y-11024D03*
G54D18*
X9771Y-11024D03*
G54D19*
X16726Y-24141D03*
X16726Y-27141D03*
G54D11*
X98289Y-26004D03*
G54D12*
X100289Y-27004D03*
X99289Y-24504D03*
G54D13*
X98289Y-24004D03*
X98289Y-28004D03*
G54D11*
X105789Y-26004D03*
G54D12*
X103789Y-25004D03*
X104789Y-27504D03*
G54D13*
X105789Y-28004D03*
X105789Y-24004D03*
G54D11*
X4539Y-26004D03*
G54D12*
X5539Y-24004D03*
X3039Y-25004D03*
G54D13*
X2539Y-26004D03*
X6539Y-26004D03*
G54D11*
X48601Y-33504D03*
G54D12*
X46601Y-32504D03*
X47601Y-35004D03*
G54D13*
X48601Y-35504D03*
X48601Y-31504D03*
G54D11*
X56101Y-33504D03*
G54D12*
X57101Y-31504D03*
X54601Y-32504D03*
G54D13*
X54101Y-33504D03*
X58101Y-33504D03*
G54D11*
X78601Y-3504D03*
G54D12*
X79601Y-1504D03*
X77101Y-2504D03*
G54D13*
X76601Y-3504D03*
X80601Y-3504D03*
G54D11*
X106726Y-33504D03*
G54D12*
X104726Y-32504D03*
X105726Y-35004D03*
G54D13*
X106726Y-35504D03*
X106726Y-31504D03*
G54D11*
X97351Y-33504D03*
G54D12*
X95351Y-32504D03*
X96351Y-35004D03*
G54D13*
X97351Y-35504D03*
X97351Y-31504D03*
G54D11*
X24226Y-33504D03*
G54D12*
X26226Y-34504D03*
X25226Y-32004D03*
G54D13*
X24226Y-31504D03*
X24226Y-35504D03*
G54D11*
X89851Y-33504D03*
G54D12*
X91851Y-34504D03*
X90851Y-32004D03*
G54D13*
X89851Y-31504D03*
X89851Y-35504D03*
G54D11*
X80476Y-33504D03*
G54D12*
X82476Y-34504D03*
X81476Y-32004D03*
G54D13*
X80476Y-31504D03*
X80476Y-35504D03*
G54D11*
X14851Y-33504D03*
G54D12*
X12851Y-32504D03*
X13851Y-35004D03*
G54D13*
X14851Y-35504D03*
X14851Y-31504D03*
G54D11*
X16726Y-33504D03*
G54D12*
X18726Y-34504D03*
X17726Y-32004D03*
G54D13*
X16726Y-31504D03*
X16726Y-35504D03*
G54D11*
X5476Y-33504D03*
G54D12*
X7476Y-34504D03*
X6476Y-32004D03*
G54D13*
X5476Y-31504D03*
X5476Y-35504D03*
G54D11*
X107664Y-14754D03*
G54D12*
X105664Y-13754D03*
X106664Y-16254D03*
G54D13*
X107664Y-16754D03*
X107664Y-12754D03*
G54D11*
X108601Y-26004D03*
G54D12*
X110601Y-27004D03*
X109601Y-24504D03*
G54D13*
X108601Y-24004D03*
X108601Y-28004D03*
G54D11*
X37351Y-11004D03*
G54D12*
X38351Y-9004D03*
X35851Y-10004D03*
G54D13*
X35351Y-11004D03*
X39351Y-11004D03*
G54D11*
X44851Y-11004D03*
G54D12*
X45851Y-9004D03*
X43351Y-10004D03*
G54D13*
X42851Y-11004D03*
X46851Y-11004D03*
G54D11*
X52351Y-11004D03*
G54D12*
X53351Y-9004D03*
X50851Y-10004D03*
G54D13*
X50351Y-11004D03*
X54351Y-11004D03*
G54D11*
X59851Y-11004D03*
G54D12*
X60851Y-9004D03*
X58351Y-10004D03*
G54D13*
X57851Y-11004D03*
X61851Y-11004D03*
G54D11*
X67351Y-11004D03*
G54D12*
X68351Y-9004D03*
X65851Y-10004D03*
G54D13*
X65351Y-11004D03*
X69351Y-11004D03*
G54D11*
X74851Y-11004D03*
G54D12*
X75851Y-9004D03*
X73351Y-10004D03*
G54D13*
X72851Y-11004D03*
X76851Y-11004D03*
G54D11*
X82351Y-11004D03*
G54D12*
X83351Y-9004D03*
X80851Y-10004D03*
G54D13*
X80351Y-11004D03*
X84351Y-11004D03*
G54D11*
X89851Y-11004D03*
G54D12*
X90851Y-9004D03*
X88351Y-10004D03*
G54D13*
X87851Y-11004D03*
X91851Y-11004D03*
G54D11*
X97351Y-11004D03*
G54D12*
X98351Y-9004D03*
X95851Y-10004D03*
G54D13*
X95351Y-11004D03*
X99351Y-11004D03*
G54D11*
X106726Y-11004D03*
G54D12*
X108726Y-12004D03*
X107726Y-9504D03*
G54D13*
X106726Y-9004D03*
X106726Y-13004D03*
G54D11*
X16726Y-18504D03*
G54D12*
X17726Y-16504D03*
X15226Y-17504D03*
G54D13*
X14726Y-18504D03*
X18726Y-18504D03*
G54D11*
X24226Y-18504D03*
G54D12*
X25226Y-16504D03*
X22726Y-17504D03*
G54D13*
X22226Y-18504D03*
X26226Y-18504D03*
G54D11*
X31726Y-18504D03*
G54D12*
X32726Y-16504D03*
X30226Y-17504D03*
G54D13*
X29726Y-18504D03*
X33726Y-18504D03*
G54D11*
X39226Y-18504D03*
G54D12*
X40226Y-16504D03*
X37726Y-17504D03*
G54D13*
X37226Y-18504D03*
X41226Y-18504D03*
G54D11*
X46726Y-18504D03*
G54D12*
X47726Y-16504D03*
X45226Y-17504D03*
G54D13*
X44726Y-18504D03*
X48726Y-18504D03*
G54D11*
X54226Y-18504D03*
G54D12*
X55226Y-16504D03*
X52726Y-17504D03*
G54D13*
X52226Y-18504D03*
X56226Y-18504D03*
G54D11*
X61726Y-18504D03*
G54D12*
X62726Y-16504D03*
X60226Y-17504D03*
G54D13*
X59726Y-18504D03*
X63726Y-18504D03*
G54D11*
X3601Y-3504D03*
G54D12*
X1601Y-2504D03*
X2601Y-5004D03*
G54D13*
X3601Y-5504D03*
X3601Y-1504D03*
G54D11*
X11101Y-3504D03*
G54D12*
X13101Y-4504D03*
X12101Y-2004D03*
G54D13*
X11101Y-1504D03*
X11101Y-5504D03*
G54D11*
X18601Y-3504D03*
G54D12*
X19601Y-1504D03*
X17101Y-2504D03*
G54D13*
X16601Y-3504D03*
X20601Y-3504D03*
G54D11*
X26101Y-3504D03*
G54D12*
X27101Y-1504D03*
X24601Y-2504D03*
G54D13*
X24101Y-3504D03*
X28101Y-3504D03*
G54D11*
X33601Y-3504D03*
G54D12*
X34601Y-1504D03*
X32101Y-2504D03*
G54D13*
X31601Y-3504D03*
X35601Y-3504D03*
G54D11*
X41101Y-3504D03*
G54D12*
X42101Y-1504D03*
X39601Y-2504D03*
G54D13*
X39101Y-3504D03*
X43101Y-3504D03*
G54D11*
X48601Y-3504D03*
G54D12*
X49601Y-1504D03*
X47101Y-2504D03*
G54D13*
X46601Y-3504D03*
X50601Y-3504D03*
G54D11*
X56101Y-3504D03*
G54D12*
X57101Y-1504D03*
X54601Y-2504D03*
G54D13*
X54101Y-3504D03*
X58101Y-3504D03*
G54D11*
X63601Y-3504D03*
G54D12*
X64601Y-1504D03*
X62101Y-2504D03*
G54D13*
X61601Y-3504D03*
X65601Y-3504D03*
G54D11*
X71101Y-3504D03*
G54D12*
X72101Y-1504D03*
X69601Y-2504D03*
G54D13*
X69101Y-3504D03*
X73101Y-3504D03*
G54D11*
X86101Y-3504D03*
G54D12*
X87101Y-1504D03*
X84601Y-2504D03*
G54D13*
X84101Y-3504D03*
X88101Y-3504D03*
G54D11*
X93601Y-3504D03*
G54D12*
X94601Y-1504D03*
X92101Y-2504D03*
G54D13*
X91601Y-3504D03*
X95601Y-3504D03*
G54D11*
X104851Y-3504D03*
G54D12*
X105851Y-1504D03*
X103351Y-2504D03*
G54D13*
X102851Y-3504D03*
X106851Y-3504D03*
G54D11*
X5476Y-11004D03*
G54D12*
X6476Y-9004D03*
X3976Y-10004D03*
G54D13*
X3476Y-11004D03*
X7476Y-11004D03*
G54D11*
X14851Y-11004D03*
G54D12*
X15851Y-9004D03*
X13351Y-10004D03*
G54D13*
X12851Y-11004D03*
X16851Y-11004D03*
G54D11*
X22351Y-11004D03*
G54D12*
X23351Y-9004D03*
X20851Y-10004D03*
G54D13*
X20351Y-11004D03*
X24351Y-11004D03*
G54D11*
X29851Y-11004D03*
G54D12*
X30851Y-9004D03*
X28351Y-10004D03*
G54D13*
X27851Y-11004D03*
X31851Y-11004D03*
G54D11*
X95476Y-26004D03*
G54D12*
X93476Y-25004D03*
X94476Y-27504D03*
G54D13*
X95476Y-28004D03*
X95476Y-24004D03*
G54D11*
X102039Y-26004D03*
G54D12*
X103039Y-24004D03*
X100539Y-25004D03*
G54D13*
X100039Y-26004D03*
X104039Y-26004D03*
G54D11*
X4539Y-33504D03*
G54D12*
X2539Y-32504D03*
X3539Y-35004D03*
G54D13*
X4539Y-35504D03*
X4539Y-31504D03*
G54D11*
X23289Y-33504D03*
G54D12*
X21289Y-32504D03*
X22289Y-35004D03*
G54D13*
X23289Y-35504D03*
X23289Y-31504D03*
G54D11*
X51414Y-33504D03*
G54D12*
X53414Y-34504D03*
X52414Y-32004D03*
G54D13*
X51414Y-31504D03*
X51414Y-35504D03*
G54D11*
X79539Y-33504D03*
G54D12*
X77539Y-32504D03*
X78539Y-35004D03*
G54D13*
X79539Y-35504D03*
X79539Y-31504D03*
G54D11*
X88914Y-33504D03*
G54D12*
X86914Y-32504D03*
X87914Y-35004D03*
G54D13*
X88914Y-35504D03*
X88914Y-31504D03*
G54D11*
X98289Y-33504D03*
G54D12*
X100289Y-34504D03*
X99289Y-32004D03*
G54D13*
X98289Y-31504D03*
X98289Y-35504D03*
G54D11*
X107664Y-33504D03*
G54D12*
X109664Y-34504D03*
X108664Y-32004D03*
G54D13*
X107664Y-31504D03*
X107664Y-35504D03*
G54D11*
X69226Y-18504D03*
G54D12*
X70226Y-16504D03*
X67726Y-17504D03*
G54D13*
X67226Y-18504D03*
X71226Y-18504D03*
G54D11*
X76726Y-18504D03*
G54D12*
X77726Y-16504D03*
X75226Y-17504D03*
G54D13*
X74726Y-18504D03*
X78726Y-18504D03*
G54D11*
X84226Y-18504D03*
G54D12*
X85226Y-16504D03*
X82726Y-17504D03*
G54D13*
X82226Y-18504D03*
X86226Y-18504D03*
G54D11*
X91726Y-18504D03*
G54D12*
X92726Y-16504D03*
X90226Y-17504D03*
G54D13*
X89726Y-18504D03*
X93726Y-18504D03*
G54D11*
X99226Y-18504D03*
G54D12*
X100226Y-16504D03*
X97726Y-17504D03*
G54D13*
X97226Y-18504D03*
X101226Y-18504D03*
G54D11*
X103914Y-18504D03*
G54D12*
X101914Y-17504D03*
X102914Y-20004D03*
G54D13*
X103914Y-20504D03*
X103914Y-16504D03*
G54D11*
X8289Y-26004D03*
G54D12*
X6289Y-25004D03*
X7289Y-27504D03*
G54D13*
X8289Y-28004D03*
X8289Y-24004D03*
G54D11*
X12976Y-26004D03*
G54D12*
X13976Y-24004D03*
X11476Y-25004D03*
G54D13*
X10976Y-26004D03*
X14976Y-26004D03*
G54D11*
X20476Y-26004D03*
G54D12*
X21476Y-24004D03*
X18976Y-25004D03*
G54D13*
X18476Y-26004D03*
X22476Y-26004D03*
G54D11*
X27976Y-26004D03*
G54D12*
X28976Y-24004D03*
X26476Y-25004D03*
G54D13*
X25976Y-26004D03*
X29976Y-26004D03*
G54D11*
X42976Y-26004D03*
G54D12*
X43976Y-24004D03*
X41476Y-25004D03*
G54D13*
X40976Y-26004D03*
X44976Y-26004D03*
G54D11*
X50476Y-26004D03*
G54D12*
X51476Y-24004D03*
X48976Y-25004D03*
G54D13*
X48476Y-26004D03*
X52476Y-26004D03*
G54D11*
X57976Y-26004D03*
G54D12*
X58976Y-24004D03*
X56476Y-25004D03*
G54D13*
X55976Y-26004D03*
X59976Y-26004D03*
G54D11*
X65476Y-26004D03*
G54D12*
X66476Y-24004D03*
X63976Y-25004D03*
G54D13*
X63476Y-26004D03*
X67476Y-26004D03*
G54D11*
X72976Y-26004D03*
G54D12*
X73976Y-24004D03*
X71476Y-25004D03*
G54D13*
X70976Y-26004D03*
X74976Y-26004D03*
G54D11*
X80476Y-26004D03*
G54D12*
X81476Y-24004D03*
X78976Y-25004D03*
G54D13*
X78476Y-26004D03*
X82476Y-26004D03*
G54D11*
X87976Y-26004D03*
G54D12*
X88976Y-24004D03*
X86476Y-25004D03*
G54D13*
X85976Y-26004D03*
X89976Y-26004D03*
G54D11*
X13914Y-33504D03*
G54D12*
X11914Y-32504D03*
X12914Y-35004D03*
G54D13*
X13914Y-35504D03*
X13914Y-31504D03*
G54D11*
X87976Y-33504D03*
G54D12*
X85976Y-32504D03*
X86976Y-35004D03*
G54D13*
X87976Y-35504D03*
X87976Y-31504D03*
G54D11*
X35476Y-26004D03*
G54D12*
X36476Y-24004D03*
X33976Y-25004D03*
G54D13*
X33476Y-26004D03*
X37476Y-26004D03*
G54D20*
X4039Y-20504D03*
X5039Y-20504D03*
X5914Y-20504D03*
X6914Y-20504D03*
X7914Y-20504D03*
X6914Y-20504D03*
G54D11*
X107663Y-18503D03*
G54D12*
X106663Y-20503D03*
X109163Y-19503D03*
G54D13*
X109663Y-18503D03*
X105663Y-18503D03*
G54D21*
X64976Y-35941D03*
X60976Y-35941D03*
X62976Y-35941D03*
X59976Y-35941D03*
X61976Y-35941D03*
X63976Y-35941D03*
M02*
