G04 (created by PCBNEW (2012-oct-18)-testing) date Fri 26 Oct 2012 04:47:30 PM CEST*
%MOIN*%
G04 Gerber Fmt 3.4, Leading zero omitted, Abs format*
%FSLAX34Y34*%
G01*
G70*
G90*
G04 APERTURE LIST*
%ADD10C,3.93701e-06*%
%ADD11R,0.0453X0.0551*%
%ADD12R,0.0551X0.0906*%
%ADD13O,0.0748X0.016*%
%ADD14O,0.016X0.0748*%
%ADD15R,0.035X0.055*%
%ADD16R,0.055X0.035*%
%ADD17R,0.0807X0.1575*%
%ADD18R,0.0807X0.1378*%
%ADD19O,0.0197X0.1063*%
G04 APERTURE END LIST*
G54D10*
G54D11*
X42711Y-33208D03*
X42711Y-34074D03*
X43341Y-33208D03*
X43341Y-34074D03*
G54D12*
X10342Y-17973D03*
X11917Y-20453D03*
X10343Y-20453D03*
X11917Y-17973D03*
G54D13*
X36724Y-33067D03*
X36724Y-32752D03*
X36724Y-32437D03*
X36724Y-32122D03*
X36724Y-31807D03*
X36724Y-31492D03*
X36724Y-33382D03*
X36724Y-33697D03*
X36724Y-34012D03*
X36724Y-34327D03*
X36724Y-34642D03*
X41224Y-33067D03*
X41224Y-32752D03*
X41224Y-32437D03*
X41224Y-32122D03*
X41224Y-31807D03*
X41224Y-31492D03*
X41224Y-33382D03*
X41224Y-33697D03*
X41224Y-34012D03*
X41224Y-34327D03*
X41224Y-34642D03*
G54D14*
X38974Y-30817D03*
X38974Y-35317D03*
X39289Y-30817D03*
X39289Y-35317D03*
X39604Y-35317D03*
X39604Y-30817D03*
X39919Y-30817D03*
X39919Y-35317D03*
X40234Y-35317D03*
X40234Y-30817D03*
X40549Y-30817D03*
X40549Y-35317D03*
X38659Y-35317D03*
X38659Y-30817D03*
X38344Y-30817D03*
X38344Y-35317D03*
X38029Y-35317D03*
X38029Y-30817D03*
X37714Y-30817D03*
X37714Y-35317D03*
X37399Y-35317D03*
X37399Y-30817D03*
G54D15*
X44351Y-31141D03*
X43601Y-31141D03*
X36470Y-35360D03*
X35720Y-35360D03*
G54D16*
X41726Y-30366D03*
X41726Y-29616D03*
X7376Y-5016D03*
X7376Y-4266D03*
X6426Y-5016D03*
X6426Y-4266D03*
X42576Y-31666D03*
X42576Y-32416D03*
X42337Y-35835D03*
X42337Y-35085D03*
X35626Y-30166D03*
X35626Y-30916D03*
X35626Y-34616D03*
X35626Y-33866D03*
G54D15*
X44051Y-34641D03*
X44801Y-34641D03*
X44051Y-32641D03*
X44801Y-32641D03*
G54D17*
X8856Y-787D03*
X4978Y-787D03*
G54D18*
X4978Y-2461D03*
X8856Y-2461D03*
G54D19*
X6917Y-2461D03*
X6602Y-2461D03*
X6287Y-2461D03*
X7232Y-2461D03*
X7547Y-2461D03*
G54D15*
X69074Y-5299D03*
X69824Y-5299D03*
X65334Y-12779D03*
X66084Y-12779D03*
X67204Y-20259D03*
X67954Y-20259D03*
X35413Y-12779D03*
X36163Y-12779D03*
X59724Y-20259D03*
X60474Y-20259D03*
X57853Y-12779D03*
X58603Y-12779D03*
X61594Y-5299D03*
X62344Y-5299D03*
X54113Y-5299D03*
X54863Y-5299D03*
X50373Y-12779D03*
X51123Y-12779D03*
X52243Y-20259D03*
X52993Y-20259D03*
X37283Y-20259D03*
X38033Y-20259D03*
X1301Y-8641D03*
X2051Y-8641D03*
X46633Y-5299D03*
X47383Y-5299D03*
X31672Y-5299D03*
X32422Y-5299D03*
X26151Y-23591D03*
X26901Y-23591D03*
X29802Y-20259D03*
X30552Y-20259D03*
X27932Y-12779D03*
X28682Y-12779D03*
X24192Y-5299D03*
X24942Y-5299D03*
X41101Y-23641D03*
X41851Y-23641D03*
X44763Y-20259D03*
X45513Y-20259D03*
X42893Y-12779D03*
X43643Y-12779D03*
X39153Y-5299D03*
X39903Y-5299D03*
X18582Y-27740D03*
X19332Y-27740D03*
X10701Y-27191D03*
X11451Y-27191D03*
X22322Y-20259D03*
X23072Y-20259D03*
X20452Y-12779D03*
X21202Y-12779D03*
X14842Y-20259D03*
X15592Y-20259D03*
X12972Y-12779D03*
X13722Y-12779D03*
X2686Y-27740D03*
X3436Y-27740D03*
X3621Y-12779D03*
X4371Y-12779D03*
X16712Y-5299D03*
X17462Y-5299D03*
X9231Y-5299D03*
X9981Y-5299D03*
X2219Y-19792D03*
X2969Y-19792D03*
X49438Y-31012D03*
X50188Y-31012D03*
X26901Y-32241D03*
X27651Y-32241D03*
X18901Y-30941D03*
X19651Y-30941D03*
X1951Y-31241D03*
X2701Y-31241D03*
X55983Y-27740D03*
X56733Y-27740D03*
X48503Y-27740D03*
X49253Y-27740D03*
X33601Y-23591D03*
X34351Y-23591D03*
X84035Y-5299D03*
X84785Y-5299D03*
X91515Y-5299D03*
X92265Y-5299D03*
X102735Y-5299D03*
X103485Y-5299D03*
X87775Y-12779D03*
X88525Y-12779D03*
X95255Y-12779D03*
X96005Y-12779D03*
X109026Y-8516D03*
X109776Y-8516D03*
X82164Y-20259D03*
X82914Y-20259D03*
X89645Y-20259D03*
X90395Y-20259D03*
X96270Y-15910D03*
X97020Y-15910D03*
X101351Y-15891D03*
X102101Y-15891D03*
X76087Y-31012D03*
X76837Y-31012D03*
X83567Y-31480D03*
X84317Y-31480D03*
X92450Y-31480D03*
X93200Y-31480D03*
X110101Y-30741D03*
X110851Y-30741D03*
X101101Y-23291D03*
X101851Y-23291D03*
X91982Y-27740D03*
X92732Y-27740D03*
X85905Y-27740D03*
X86655Y-27740D03*
X78424Y-27740D03*
X79174Y-27740D03*
X70944Y-27740D03*
X71694Y-27740D03*
X63464Y-27740D03*
X64214Y-27740D03*
X80294Y-12779D03*
X81044Y-12779D03*
X76554Y-5299D03*
X77304Y-5299D03*
X72814Y-12779D03*
X73564Y-12779D03*
X74684Y-20259D03*
X75434Y-20259D03*
G54D16*
X4926Y-4566D03*
X4926Y-5316D03*
M02*
